/vscmnt/brussel_pixiu_data/_data_brussel/112/vsc11236/PredSimResults/SUBJ10opt3D/expIG/worker_13.mot
version=1
nRows=10
nColumns=50
inDegrees=yes
endheader
                time	         pelvis_tilt	         pelvis_list	     pelvis_rotation	           pelvis_tx	           pelvis_ty	           pelvis_tz	       hip_flexion_r	     hip_adduction_r	      hip_rotation_r	        knee_angle_r	       ankle_angle_r	         mtp_angle_r	       hip_flexion_l	     hip_adduction_l	      hip_rotation_l	        knee_angle_l	       ankle_angle_l	         mtp_angle_l	    lumbar_extension	      lumbar_bending	     lumbar_rotation	 ercspn_r/activation	 intobl_r/activation	 extobl_r/activation	    abd_r/activation	    add_r/activation	hamstrings_r/activation	bifemsh_r/activation	glut_max_r/activation	iliopsoas_r/activation	rect_fem_r/activation	  vasti_r/activation	gastroc_r/activation	 soleus_r/activation	tib_ant_r/activation	 ercspn_l/activation	 intobl_l/activation	 extobl_l/activation	    abd_l/activation	    add_l/activation	hamstrings_l/activation	bifemsh_l/activation	glut_max_l/activation	iliopsoas_l/activation	rect_fem_l/activation	  vasti_l/activation	gastroc_l/activation	 soleus_l/activation	tib_ant_l/activation	
          0.73335114	        -10.00732243	         -1.57844801	          2.42506062	          1.32003204	          0.82948469	          0.00281361	         36.67937939	          4.23212511	          1.92627206	        -28.24663389	          5.36318976	          0.43046832	        -12.81650371	          0.97349492	         -3.76661315	        -17.29019973	        -13.16246009	         31.04356159	         -3.28253554	          2.32398130	         -8.86596583	          0.18108340	          0.01374032	          0.01000000	          0.01840975	          0.23209766	          0.35783162	          0.38635521	          0.00999999	          0.04684848	          0.00999999	          0.00999999	          0.00999999	          0.00999999	          0.43589511	          0.11242920	          0.00999999	          0.00999999	          0.01413317	          0.17998135	          0.03079863	          0.03219786	          0.01787008	          0.59468882	          0.03348695	          0.01259388	          0.20064963	          0.10970392	          0.00999999	
          0.74068465	         -9.94955148	         -1.53086632	          2.37566482	          1.33506960	          0.82606993	          0.00308524	         36.20617402	          4.51158073	          2.22292179	        -29.05080724	          5.69575096	          0.42055371	        -12.39042960	          0.87875007	         -3.99353079	        -19.84707624	        -13.71843743	         30.63716838	         -3.09379306	          2.47725709	         -8.86462386	          0.16136102	          0.01224382	          0.00999999	          0.01640469	          0.30038510	          0.31885902	          0.34427601	          0.04548165	          0.04174606	          0.00999999	          0.01577900	          0.00999999	          0.00999999	          0.38842036	          0.11454755	          0.00999999	          0.00999999	          0.01259388	          0.16037900	          0.03380897	          0.06159994	          0.01592379	          0.52991933	          0.02983977	          0.01122224	          0.17879623	          0.09775571	          0.00999999	
          0.74801816	         -9.88744195	         -1.50800233	          2.30556772	          1.35014243	          0.82242433	          0.00332020	         35.76686431	          4.75119297	          2.53716183	        -30.50568073	          6.80956518	          0.60859689	        -11.76508648	          0.74459808	         -4.21817527	        -22.74195970	        -14.34037944	         30.01889726	         -2.89940738	          2.66910013	         -8.81374841	          0.14378667	          0.01091031	          0.00999999	          0.14246458	          0.30851345	          0.28413105	          0.30677979	          0.04052810	          0.03719936	          0.00999999	          0.13359580	          0.01413317	          0.11182476	          0.34611624	          0.13672992	          0.00999999	          0.00999999	          0.01122224	          0.21401240	          0.03701019	          0.05489089	          0.01418948	          0.47220410	          0.02658983	          0.00999999	          0.15932295	          0.08710882	          0.00999999	
          0.75535167	         -9.82544401	         -1.51946895	          2.21035889	          1.36513939	          0.81878817	          0.00351411	         35.27802256	          4.96301596	          2.74572480	        -32.02973182	          8.75956318	          1.15191605	        -10.93008245	          0.56234730	         -4.44560177	        -25.91540497	        -15.15869316	         29.14648908	         -2.71169043	          2.90962335	         -8.71221669	          0.12812639	          0.00999999	          0.00999999	          0.22177576	          0.27491225	          0.25318541	          0.27336741	          0.12163572	          0.03314785	          0.00999999	          0.20704835	          0.01259388	          0.11965111	          0.30841960	          0.18703949	          0.01567057	          0.01122224	          0.00999999	          0.20201665	          0.03361071	          0.05878102	          0.01264406	          0.42077482	          0.02369384	          0.00999999	          0.14197057	          0.07762152	          0.00999999	
          0.76268518	         -9.76665286	         -1.57172194	          2.08920713	          1.37990685	          0.81544544	          0.00369628	         34.76445670	          5.19503080	          2.86374921	        -33.50150202	         10.88187959	          1.89369738	         -9.87173775	          0.32340349	         -4.67054655	        -29.31215779	        -16.22834324	         27.88755503	         -2.54891356	          3.19841593	         -8.56275049	          0.11417173	          0.00999999	          0.00999999	          0.27387044	          0.24497066	          0.22561017	          0.24359407	          0.12468012	          0.02953761	          0.00999999	          0.31201831	          0.01122224	          0.17205245	          0.27482862	          0.23195232	          0.05690336	          0.00999999	          0.00999999	          0.18001436	          0.02995006	          0.05237902	          0.01126695	          0.37494687	          0.02111327	          0.00999999	          0.12650810	          0.06916750	          0.04606783	
          0.77001869	         -9.71292644	         -1.65393951	          1.95115945	          1.39436003	          0.81258218	          0.00387606	         34.21253417	          5.44873551	          2.95843114	        -34.81332267	         12.77529949	          2.74334246	         -8.60368366	          0.04081399	         -4.87066285	        -32.87965469	        -17.40968147	         26.02630474	         -2.42115429	          3.51346441	         -8.37293153	          0.10173692	          0.00999999	          0.00999999	          0.30617426	          0.21829011	          0.20103823	          0.21706345	          0.11110080	          0.02632058	          0.00999999	          0.38272896	          0.00999999	          0.21915488	          0.24489614	          0.26173357	          0.10170030	          0.00999999	          0.00999999	          0.16040841	          0.02668810	          0.08044917	          0.01003983	          0.33411018	          0.01881376	          0.00999999	          0.11272969	          0.06163425	          0.13808284	
          0.77735220	         -9.66575744	         -1.75655966	          1.80304278	          1.40847099	          0.81028514	          0.00405275	         33.58524969	          5.71241969	          3.04744413	        -35.89038703	         14.39791873	          3.65261222	         -7.16876273	         -0.26398815	         -5.02808142	        -36.53904761	        -18.25622698	         23.73210097	         -2.33117516	          3.83596304	         -8.14508151	          0.09382456	          0.00999999	          0.00999999	          0.32063336	          0.19451543	          0.17914251	          0.19342237	          0.09900045	          0.02345392	          0.00999999	          0.42706367	          0.00999999	          0.26290730	          0.21822371	          0.27753572	          0.11342874	          0.00999999	          0.00999999	          0.14293781	          0.02378142	          0.09585919	          0.00999999	          0.29772116	          0.01676469	          0.00999999	          0.12912798	          0.05492146	          0.12710840	
          0.78468572	         -9.62591572	         -1.86726153	          1.64833394	          1.42226018	          0.80860422	          0.00421888	         32.85894234	          5.97092440	          3.13986353	        -36.69596153	         15.75794205	          4.59072059	         -5.61658312	         -0.56713762	         -5.14496400	        -40.15859008	        -18.41602328	         21.60171800	         -2.27590063	          4.14854639	         -7.88140058	          0.09672970	          0.00999999	          0.00999999	          0.32607241	          0.17333012	          0.15963151	          0.17235611	          0.08821799	          0.02089947	          0.00999999	          0.44306765	          0.00999999	          0.30025085	          0.19445625	          0.27581007	          0.11831886	          0.00999999	          0.00999999	          0.12736999	          0.02119131	          0.11877770	          0.00999999	          0.26529538	          0.01493879	          0.00999999	          0.14185344	          0.04893979	          0.16301003	
          0.79201923	         -9.59371503	         -1.97788721	          1.48853455	          1.43576874	          0.80756675	          0.00436669	         32.02827385	          6.21472571	          3.24204316	        -37.22574156	         16.85615861	          5.54222902	         -3.97474732	         -0.85953033	         -5.23085270	        -43.64935513	        -18.17060621	         19.66721462	         -2.24982396	          4.44209996	         -7.58368732	          0.09233562	          0.00999999	          0.00999999	          0.32084755	          0.15445218	          0.14224553	          0.15358425	          0.07860989	          0.01862325	          0.00999999	          0.43842227	          0.03255638	          0.33200161	          0.17327739	          0.27087633	          0.11686537	          0.00999999	          0.00999999	          0.11349771	          0.01888329	          0.14250171	          0.00999999	          0.23640120	          0.01331176	          0.00999999	          0.12640372	          0.04360959	          0.17581605	
          0.79935274	         -9.56913438	         -2.08203642	          1.32437354	          1.44903137	          0.80715677	          0.00449191	         31.10785765	          6.43742016	          3.35662907	        -37.50813747	         17.68641325	          6.50778451	         -2.26572619	         -1.13515894	         -5.29521951	        -46.95042262	        -17.69136694	         17.90921836	         -2.24862118	          4.71022424	         -7.25460760	          0.08962136	          0.00999999	          0.00999999	          0.30873719	          0.13763029	          0.12675310	          0.13685689	          0.07004823	          0.01659493	          0.00999999	          0.40510831	          0.05309848	          0.35742906	          0.15440519	          0.25837743	          0.11061063	          0.00999999	          0.00999999	          0.10113631	          0.01682665	          0.16815199	          0.00999999	          0.21065398	          0.01186193	          0.00999999	          0.11263668	          0.03885993	          0.17664642	
